<svg width="163" height="168" viewBox="0 0 163 168" fill="none" xmlns="http://www.w3.org/2000/svg">
<g clip-path="url(#clip0_123_166)">
<path d="M10.584 168C9.19787 168.01 7.82348 167.745 6.54008 167.222C5.25668 166.698 4.08966 165.925 3.10632 164.948V164.948C2.11802 163.967 1.33365 162.8 0.798382 161.514C0.263118 160.228 -0.0124512 158.849 -0.0124512 157.457C-0.0124512 156.064 0.263118 154.685 0.798382 153.399C1.33365 152.114 2.11802 150.947 3.10632 149.965L106.447 46.7351C108.43 44.7483 111.121 43.6306 113.928 43.6281C116.735 43.6255 119.429 44.7382 121.416 46.7214C123.402 48.7046 124.52 51.3958 124.523 54.2031C124.525 57.0103 123.413 59.7036 121.429 61.6905L18.0617 164.948C17.0783 165.925 15.9113 166.698 14.6279 167.222C13.3445 167.745 11.9701 168.01 10.584 168V168ZM5.08571 162.886C5.80432 163.614 6.6604 164.193 7.60426 164.587C8.54812 164.982 9.56096 165.185 10.584 165.185C11.607 165.185 12.6199 164.982 13.5637 164.587C14.5076 164.193 15.3637 163.614 16.0823 162.886L119.395 59.5461C120.853 58.0879 121.672 56.1101 121.672 54.0478C121.672 51.9856 120.853 50.0078 119.395 48.5496C117.937 47.0913 115.959 46.2721 113.897 46.2721C111.834 46.2721 109.857 47.0913 108.398 48.5496L5.1132 151.972C4.38171 152.689 3.80059 153.544 3.40386 154.489C3.00714 155.433 2.8028 156.446 2.8028 157.471C2.8028 158.495 3.00714 159.508 3.40386 160.453C3.80059 161.397 4.38171 162.252 5.1132 162.969L5.08571 162.886Z" fill="#FF002E"/>
<path d="M87.0219 68.0266L85.0002 70.0483L97.9469 82.995L99.9686 80.9733L87.0219 68.0266Z" fill="#FF002E"/>
<path d="M89.4565 35.9586C88.9978 35.9685 88.5412 35.894 88.1094 35.7386C87.3432 35.4878 86.6644 35.0235 86.1531 34.4001C85.6417 33.7767 85.319 33.0203 85.2229 32.2197L84.2881 25.8692C84.2493 25.6296 84.1543 25.4026 84.0109 25.2067C83.8676 25.0109 83.68 24.8516 83.4634 24.7421L77.6902 21.9929C76.9588 21.6361 76.3423 21.0809 75.9111 20.3907C75.4799 19.7005 75.2512 18.903 75.2512 18.0892C75.2512 17.2753 75.4799 16.4778 75.9111 15.7876C76.3423 15.0974 76.9588 14.5422 77.6902 14.1854L83.4634 11.4362C83.6787 11.3249 83.8652 11.1652 84.0083 10.9696C84.1514 10.774 84.2472 10.5479 84.2881 10.3091L85.2229 3.73864C85.3196 2.95816 85.6264 2.2186 86.1106 1.59886C86.5948 0.979122 87.2381 0.50246 87.972 0.219738C88.7419 -0.0408141 89.5703 -0.0757282 90.3594 0.119114C91.1485 0.313957 91.8654 0.730427 92.4256 1.31939L96.9342 5.91046C97.1 6.08797 97.3076 6.2212 97.5381 6.29802C97.7686 6.37485 98.0146 6.39282 98.2538 6.35032L104.577 5.25067C105.379 5.11298 106.204 5.20196 106.958 5.50758C107.712 5.8132 108.366 6.32333 108.846 6.98052C109.326 7.63771 109.613 8.41587 109.675 9.22736C109.737 10.0389 109.571 10.8515 109.195 11.5737L106.309 17.2644C106.188 17.4784 106.125 17.7199 106.125 17.9654C106.125 18.211 106.188 18.4525 106.309 18.6665L109.305 24.3297C109.686 25.0505 109.857 25.8633 109.8 26.6763C109.743 27.4893 109.459 28.2701 108.982 28.9306C108.504 29.5911 107.852 30.1049 107.098 30.4141C106.343 30.7232 105.518 30.8154 104.714 30.6802L98.3637 29.6081C98.1269 29.5596 97.8816 29.572 97.6508 29.6441C97.42 29.7162 97.2113 29.8457 97.0442 30.0204L92.5631 34.639C92.1604 35.0563 91.6779 35.3883 91.1441 35.615C90.6104 35.8417 90.0364 35.9586 89.4565 35.9586V35.9586ZM89.4565 2.96888H88.9892C88.7212 3.05129 88.4827 3.20924 88.3023 3.42379C88.1219 3.63835 88.0072 3.90039 87.972 4.1785L87.0648 10.529C86.9437 11.2217 86.6584 11.8752 86.2327 12.4349C85.807 12.9945 85.2533 13.444 84.618 13.7455L78.8448 16.4947C78.5902 16.6133 78.3762 16.8044 78.2295 17.0439C78.0829 17.2835 78.01 17.561 78.0201 17.8417C78.0226 18.1234 78.1037 18.3987 78.2543 18.6367C78.4049 18.8747 78.6189 19.0659 78.8723 19.1888L84.618 21.938C85.2555 22.2438 85.8074 22.7026 86.2247 23.2734C86.642 23.8441 86.9117 24.5092 87.0098 25.2094L87.972 31.8074C88.0058 32.0901 88.1234 32.3563 88.3095 32.5718C88.4956 32.7873 88.7419 32.9423 89.0167 33.017C89.2805 33.1118 89.566 33.1286 89.8391 33.0652C90.1122 33.0018 90.3611 32.861 90.5562 32.6596L95.0373 28.041C95.5316 27.5143 96.1518 27.1219 96.8395 26.9007C97.5272 26.6795 98.2598 26.6367 98.9686 26.7764L105.292 27.8486C105.571 27.904 105.861 27.8762 106.124 27.7687C106.388 27.6612 106.615 27.4787 106.776 27.2438C106.925 27.0097 107.005 26.7379 107.005 26.4603C107.005 26.1827 106.925 25.9108 106.776 25.6768L103.78 19.9861C103.447 19.3594 103.274 18.6609 103.274 17.9517C103.274 17.2424 103.447 16.544 103.78 15.9173L106.776 10.2266C106.922 9.99141 107 9.72002 107 9.4431C107 9.16619 106.922 8.8948 106.776 8.6596C106.606 8.43448 106.378 8.25945 106.117 8.153C105.856 8.04654 105.571 8.01261 105.292 8.05479L98.9686 9.15445C98.2706 9.27563 97.5536 9.22643 96.8788 9.01104C96.2039 8.79566 95.591 8.42045 95.0923 7.91733L90.4737 3.32627C90.346 3.15971 90.1844 3.02213 89.9995 2.92262C89.8147 2.8231 89.6109 2.76391 89.4015 2.74895L89.4565 2.96888Z" fill="#FF002E"/>
<path d="M147.986 43.5738C147.387 43.5711 146.795 43.4453 146.246 43.2041C145.697 42.9629 145.204 42.6115 144.797 42.1717L140.426 37.4707C140.261 37.2902 140.055 37.1532 139.825 37.0717C139.595 36.9902 139.348 36.9667 139.106 37.0033L132.756 37.9105C131.954 38.0205 131.137 37.9055 130.396 37.5783C129.655 37.2512 129.02 36.7247 128.561 36.0576C128.102 35.3905 127.837 34.609 127.797 33.8003C127.756 32.9916 127.94 32.1875 128.33 31.4775L131.464 25.9793C131.579 25.7636 131.64 25.5228 131.64 25.2782C131.64 25.0336 131.579 24.7928 131.464 24.5772L128.715 18.8315C128.346 18.1022 128.191 17.2838 128.266 16.4701C128.342 15.6565 128.646 14.8807 129.142 14.2319C129.639 13.583 130.309 13.0874 131.074 12.802C131.84 12.5166 132.67 12.453 133.471 12.6184L139.711 13.7456C139.95 13.7949 140.197 13.7856 140.432 13.7186C140.667 13.6516 140.882 13.5288 141.058 13.3607L145.704 8.87961C146.288 8.30921 147.02 7.9137 147.817 7.73787C148.614 7.56204 149.445 7.61292 150.214 7.88473C150.984 8.15655 151.662 8.63845 152.172 9.27586C152.682 9.91327 153.003 10.6807 153.1 11.4913L153.842 17.8693C153.872 18.1119 153.96 18.3436 154.098 18.5447C154.237 18.7458 154.423 18.9102 154.639 19.0239L160.275 21.993C160.997 22.372 161.598 22.9453 162.011 23.6482C162.424 24.351 162.632 25.1553 162.612 25.9703C162.592 26.7853 162.345 27.5784 161.898 28.2601C161.451 28.9418 160.822 29.4849 160.082 29.8281L154.227 32.5772C154.004 32.6749 153.81 32.8267 153.661 33.0187C153.512 33.2108 153.414 33.437 153.374 33.6769L152.302 39.9999C152.168 40.8045 151.81 41.5554 151.271 42.1675C150.732 42.7797 150.032 43.2287 149.251 43.4638C148.836 43.554 148.411 43.5909 147.986 43.5738V43.5738ZM139.326 34.1167C139.929 34.1236 140.524 34.2512 141.077 34.492C141.629 34.7328 142.128 35.082 142.543 35.5188L146.887 40.2473C147.081 40.45 147.327 40.5955 147.599 40.6682C147.87 40.7409 148.156 40.7379 148.426 40.6597C148.695 40.5837 148.937 40.4318 149.122 40.2222C149.307 40.0126 149.428 39.7541 149.471 39.4775L150.57 33.1545C150.686 32.4525 150.971 31.7896 151.403 31.224C151.834 30.6583 152.398 30.2073 153.045 29.9105L158.873 27.1614C159.146 27.05 159.38 26.8597 159.544 26.6149C159.709 26.3701 159.797 26.0818 159.797 25.7868C159.797 25.4918 159.709 25.2036 159.544 24.9587C159.38 24.7139 159.146 24.5237 158.873 24.4123L153.265 21.5531C152.635 21.2254 152.095 20.7482 151.692 20.1635C151.29 19.5788 151.037 18.9044 150.955 18.1992L150.185 11.8212C150.137 11.553 150.016 11.303 149.837 11.0977C149.657 10.8924 149.426 10.7394 149.167 10.6549C148.908 10.5703 148.63 10.5575 148.364 10.6176C148.099 10.6777 147.854 10.8086 147.656 10.9964L142.955 15.3951C142.457 15.869 141.853 16.2163 141.192 16.4077C140.532 16.599 139.836 16.6289 139.161 16.4947L132.866 15.2576C132.592 15.1964 132.306 15.2158 132.042 15.3133C131.779 15.4109 131.549 15.5825 131.381 15.8074C131.207 16.031 131.099 16.2991 131.07 16.581C131.041 16.863 131.092 17.1474 131.216 17.4019L133.966 23.1476C134.291 23.7764 134.461 24.474 134.461 25.182C134.461 25.89 134.291 26.5876 133.966 27.2164L130.832 32.7147C130.676 32.9462 130.592 33.219 130.592 33.4982C130.592 33.7773 130.676 34.0502 130.832 34.2817C130.986 34.5193 131.205 34.7077 131.464 34.8246C131.722 34.9415 132.008 34.982 132.289 34.9415L138.639 34.0068L139.326 34.1167Z" fill="#FF002E"/>
<path d="M143.89 97.0996C143.089 97.1014 142.303 96.8815 141.618 96.4642C140.934 96.047 140.379 95.4486 140.014 94.7353L137.072 89.0446C136.963 88.828 136.803 88.6404 136.608 88.497C136.412 88.3537 136.185 88.2587 135.945 88.2198L129.567 87.4226C128.761 87.3177 128 86.9901 127.37 86.4768C126.74 85.9634 126.266 85.2844 126 84.5163C125.734 83.7481 125.688 82.9211 125.867 82.1281C126.045 81.3352 126.441 80.6077 127.01 80.0274L131.546 75.4638C131.698 75.2983 131.814 75.1025 131.885 74.8893C131.956 74.6761 131.981 74.4503 131.959 74.2267L130.749 67.9312C130.604 67.1337 130.683 66.3116 130.978 65.5565C131.273 64.8015 131.772 64.1434 132.419 63.6557C133.067 63.1679 133.837 62.8699 134.644 62.7947C135.451 62.7196 136.263 62.8703 136.99 63.2301L142.735 65.9793C142.953 66.0882 143.193 66.1448 143.436 66.1448C143.68 66.1448 143.92 66.0882 144.137 65.9793L149.636 62.8728C150.349 62.4865 151.156 62.3064 151.966 62.3527C152.776 62.399 153.558 62.6699 154.222 63.135C154.887 63.6001 155.41 64.2411 155.731 64.9862C156.052 65.7313 156.16 66.5511 156.041 67.3539L155.052 73.7044C155.024 73.9496 155.051 74.1979 155.132 74.431C155.213 74.6642 155.345 74.8762 155.519 75.0514L160.192 79.4501C160.781 80.0092 161.201 80.7211 161.408 81.5059C161.614 82.2908 161.598 83.1176 161.361 83.8938C161.125 84.67 160.676 85.3649 160.067 85.9007C159.457 86.4366 158.711 86.7922 157.911 86.9277L151.698 87.9724C151.459 88.0161 151.235 88.1162 151.044 88.2645C150.853 88.4128 150.7 88.6049 150.598 88.8246L147.849 94.6253C147.503 95.3643 146.956 95.9909 146.27 96.4334C145.585 96.8758 144.788 97.1162 143.973 97.1271L143.89 97.0996ZM129.045 82.0343C128.843 82.2293 128.703 82.4783 128.639 82.7514C128.576 83.0244 128.592 83.31 128.687 83.5738C128.775 83.8439 128.938 84.0832 129.157 84.2635C129.376 84.4438 129.643 84.5574 129.924 84.591L136.302 85.3882C137.003 85.4836 137.671 85.7455 138.25 86.1521C138.829 86.5587 139.301 87.098 139.629 87.725L142.57 93.4707C142.698 93.7159 142.892 93.9204 143.13 94.0613C143.368 94.2022 143.641 94.2737 143.918 94.2679C144.201 94.2721 144.479 94.1937 144.718 94.0424C144.957 93.891 145.147 93.6733 145.265 93.4157L148.014 87.615C148.314 86.9894 148.76 86.4453 149.316 86.0289C149.871 85.6126 150.518 85.3362 151.203 85.2233L157.553 84.1786C157.834 84.138 158.096 84.018 158.311 83.8329C158.525 83.6478 158.682 83.4053 158.763 83.1339C158.841 82.8641 158.844 82.578 158.771 82.3067C158.699 82.0353 158.553 81.789 158.351 81.5944L153.677 77.1958C153.164 76.7135 152.775 76.1137 152.546 75.448C152.316 74.7823 152.251 74.0707 152.357 73.3745L153.32 67.024C153.366 66.746 153.332 66.4603 153.219 66.2017C153.107 65.9431 152.922 65.7226 152.687 65.5669C152.454 65.4143 152.182 65.3331 151.904 65.3331C151.625 65.3331 151.353 65.4143 151.12 65.5669L145.622 68.6734C144.995 69.0056 144.297 69.1793 143.588 69.1793C142.878 69.1793 142.18 69.0056 141.553 68.6734L135.808 65.7868C135.558 65.6668 135.281 65.6161 135.005 65.6403C134.729 65.6645 134.465 65.7626 134.241 65.9243C134.013 66.0913 133.838 66.3197 133.736 66.5826C133.634 66.8455 133.608 67.1321 133.663 67.4088L134.873 73.7319C134.998 74.4276 134.953 75.1432 134.742 75.8179C134.532 76.4927 134.161 77.1068 133.663 77.6081L129.045 82.0343Z" fill="#FF002E"/>
</g>
<defs>
<clipPath id="clip0_123_166">
<rect width="162.612" height="168" fill="white"/>
</clipPath>
</defs>
</svg>
