<svg width="149" height="158" viewBox="0 0 149 158" fill="none" xmlns="http://www.w3.org/2000/svg">
<g clip-path="url(#clip0_123_165)">
<path d="M138.311 155.843C135.476 155.843 132.757 154.717 130.752 152.712C128.748 150.708 127.621 147.989 127.621 145.154V90.9834C121.881 88.6618 116.552 85.4321 111.837 81.418C111.723 81.3179 111.631 81.1952 111.566 81.0576C111.502 80.9201 111.467 80.7707 111.463 80.6188C109.889 12.4874 147.202 1.34858 147.576 1.24868C147.741 1.20156 147.915 1.19282 148.084 1.22312C148.252 1.25342 148.412 1.32197 148.55 1.42351C148.691 1.5268 148.806 1.66227 148.884 1.81864C148.962 1.97501 149.002 2.14778 149 2.3226V145.154C149 147.989 147.874 150.708 145.869 152.712C143.864 154.717 141.146 155.843 138.311 155.843V155.843ZM113.835 80.0693C118.426 83.8891 123.594 86.9575 129.145 89.1602C129.36 89.2381 129.545 89.3809 129.675 89.5689C129.804 89.7569 129.872 89.9807 129.869 90.2091V145.154C129.869 147.393 130.759 149.54 132.342 151.123C133.925 152.706 136.072 153.595 138.311 153.595C140.549 153.595 142.697 152.706 144.28 151.123C145.863 149.54 146.752 147.393 146.752 145.154V3.94597C140.109 6.74315 112.711 21.9279 113.835 80.0693Z" fill="#FF002E"/>
<path d="M25.4492 154.57C22.612 154.563 19.8932 153.431 17.8893 151.423C15.8854 149.414 14.76 146.693 14.76 143.855V63.9358C14.76 63.6377 14.8784 63.3518 15.0892 63.1411C15.2999 62.9303 15.5858 62.8119 15.8839 62.8119C16.1819 62.8119 16.4678 62.9303 16.6786 63.1411C16.8893 63.3518 17.0077 63.6377 17.0077 63.9358V143.855C17.0077 146.094 17.8971 148.241 19.4802 149.824C21.0633 151.407 23.2104 152.297 25.4492 152.297C27.6881 152.297 29.8352 151.407 31.4183 149.824C33.0014 148.241 33.8908 146.094 33.8908 143.855V63.9358C33.8908 63.7882 33.9198 63.642 33.9763 63.5057C34.0328 63.3693 34.1156 63.2454 34.2199 63.1411C34.3243 63.0367 34.4482 62.9539 34.5845 62.8974C34.7209 62.841 34.867 62.8119 35.0146 62.8119C35.1622 62.8119 35.3084 62.841 35.4447 62.8974C35.5811 62.9539 35.705 63.0367 35.8093 63.1411C35.9137 63.2454 35.9965 63.3693 36.0529 63.5057C36.1094 63.642 36.1385 63.7882 36.1385 63.9358V143.855C36.1385 146.693 35.0131 149.414 33.0092 151.423C31.0053 153.431 28.2865 154.563 25.4492 154.57V154.57Z" fill="#FF002E"/>
<path d="M15.884 64.9347C15.7036 64.9791 15.515 64.9791 15.3346 64.9347C6.01894 59.7399 0 48.0267 0 34.9649C0 17.0829 11.4135 2.49756 25.4494 2.49756C39.4852 2.49756 50.8738 17.0829 50.8738 34.9649C50.8738 47.9768 44.8548 59.69 35.5642 64.9347C35.3025 65.0769 34.9951 65.1095 34.7094 65.0252C34.4238 64.9409 34.1833 64.7467 34.0407 64.4852C33.8965 64.2265 33.8602 63.9214 33.9397 63.6361C34.0192 63.3508 34.2081 63.1085 34.4653 62.9617C43.0816 58.2165 48.626 47.2525 48.626 35.0648C48.626 18.3816 38.2365 4.79525 25.4494 4.79525C12.6623 4.79525 2.24774 18.3316 2.24774 34.9649C2.24774 47.1526 7.81713 58.1166 16.4335 62.8618C16.695 63.0043 16.8892 63.2448 16.9735 63.5305C17.0578 63.8161 17.0252 64.1236 16.883 64.3853C16.7769 64.5542 16.6295 64.6933 16.4547 64.7894C16.2799 64.8855 16.0835 64.9355 15.884 64.9347V64.9347Z" fill="#FF002E"/>
<path d="M82.617 157.042C79.782 157.042 77.0632 155.916 75.0585 153.911C73.0539 151.907 71.9277 149.188 71.9277 146.353V68.9308C71.9277 68.6328 72.0461 68.3469 72.2569 68.1361C72.4677 67.9254 72.7535 67.807 73.0516 67.807C73.3497 67.807 73.6355 67.9254 73.8463 68.1361C74.0571 68.3469 74.1755 68.6328 74.1755 68.9308V146.353C74.1755 148.592 75.0648 150.739 76.6479 152.322C78.231 153.905 80.3782 154.794 82.617 154.794C84.8558 154.794 87.0029 153.905 88.586 152.322C90.1691 150.739 91.0585 148.592 91.0585 146.353V67.807C91.0585 67.5089 91.1769 67.223 91.3876 67.0123C91.5984 66.8015 91.8843 66.6831 92.1823 66.6831C92.4804 66.6831 92.7663 66.8015 92.977 67.0123C93.1878 67.223 93.3062 67.5089 93.3062 67.807V146.353C93.3062 149.188 92.18 151.907 90.1754 153.911C88.1708 155.916 85.4519 157.042 82.617 157.042V157.042Z" fill="#FF002E"/>
<path d="M88.9357 8.64138H88.611C88.4711 8.59977 88.3369 8.54105 88.2114 8.46655C87.9794 8.31622 87.811 8.08565 87.7383 7.81893C87.6656 7.55221 87.6937 7.26806 87.8174 7.0208C87.941 6.77353 88.1514 6.58051 88.4084 6.47864C88.6654 6.37676 88.9509 6.37317 89.2104 6.46856C89.5014 6.55536 89.7462 6.75383 89.8913 7.02059C90.0363 7.28735 90.0699 7.6007 89.9846 7.89213C89.9078 8.10955 89.7659 8.29806 89.5783 8.43209C89.3906 8.56612 89.1663 8.63919 88.9357 8.64138V8.64138Z" fill="#FF002E"/>
<path d="M73.0512 70.1544C72.9361 70.1802 72.8167 70.1802 72.7016 70.1544C67.5028 68.3929 62.9902 65.0401 59.8032 60.5711C56.6161 56.1021 54.9163 50.7434 54.9444 45.2544V31.3934C54.9444 31.0953 55.0628 30.8095 55.2736 30.5987C55.4844 30.3879 55.7702 30.2695 56.0683 30.2695C56.3664 30.2695 56.6522 30.3879 56.863 30.5987C57.0738 30.8095 57.1922 31.0953 57.1922 31.3934V45.2544C57.1842 50.2643 58.7491 55.1503 61.6661 59.2234C64.5831 63.2965 68.7051 66.3511 73.4508 67.9566C73.7319 68.0532 73.9633 68.2572 74.0944 68.524C74.2255 68.7908 74.2455 69.0986 74.1501 69.3802C74.0714 69.6083 73.923 69.8058 73.7257 69.9448C73.5285 70.0837 73.2925 70.1571 73.0512 70.1544Z" fill="#FF002E"/>
<path d="M92.1819 68.9556C91.9706 68.9549 91.764 68.8932 91.5868 68.7781C91.4096 68.6629 91.2694 68.4991 91.1829 68.3062C91.0524 68.041 91.0316 67.7349 91.1251 67.4544C91.2186 67.174 91.4188 66.9416 91.6824 66.8077C95.7296 64.8492 99.1408 61.7866 101.523 57.9731C103.904 54.1596 105.16 49.7506 105.144 45.2544V31.3934C105.144 31.0953 105.262 30.8095 105.473 30.5987C105.684 30.3879 105.97 30.2695 106.268 30.2695C106.566 30.2695 106.852 30.3879 107.062 30.5987C107.273 30.8095 107.392 31.0953 107.392 31.3934V45.2544C107.409 50.1708 106.038 54.9921 103.435 59.1632C100.833 63.3343 97.1051 66.6854 92.6814 68.8307C92.5265 68.9096 92.3557 68.9523 92.1819 68.9556V68.9556Z" fill="#FF002E"/>
<path d="M71.3778 9.36582C71.2302 9.36582 71.084 9.33675 70.9477 9.28027C70.8113 9.22379 70.6874 9.141 70.5831 9.03664C70.4787 8.93228 70.3959 8.80839 70.3395 8.67203C70.283 8.53568 70.2539 8.38954 70.2539 8.24195C70.2949 7.96322 70.4348 7.70852 70.648 7.52437C70.8612 7.34022 71.1335 7.23889 71.4152 7.23889C71.697 7.23889 71.9693 7.34022 72.1825 7.52437C72.3957 7.70852 72.5356 7.96322 72.5766 8.24195C72.5802 8.48398 72.5039 8.72045 72.3594 8.91465C72.2149 9.10884 72.0103 9.24988 71.7774 9.31587C71.6483 9.35644 71.5129 9.37336 71.3778 9.36582V9.36582Z" fill="#FF002E"/>
<path d="M106.268 38.8859C106.12 38.8859 105.974 38.8568 105.838 38.8003C105.702 38.7438 105.578 38.661 105.473 38.5567C105.369 38.4523 105.286 38.3284 105.23 38.1921C105.173 38.0557 105.144 37.9096 105.144 37.762V8.81613C105.144 7.07408 104.452 5.40339 103.22 4.17157C101.989 2.93976 100.318 2.24774 98.5758 2.24774H96.5029C94.9578 2.24438 93.4618 2.78995 92.2817 3.78715C91.1015 4.78434 90.3139 6.16832 90.0594 7.69226C90.0189 8.06579 90.0189 8.44259 90.0594 8.81613V37.762C90.0594 38.0601 89.941 38.3459 89.7302 38.5567C89.5194 38.7674 89.2336 38.8859 88.9355 38.8859C88.6374 38.8859 88.3516 38.7674 88.1408 38.5567C87.9301 38.3459 87.8116 38.0601 87.8116 37.762V8.81613C87.8064 8.29612 87.8567 7.77704 87.9615 7.26768C88.307 5.24698 89.3517 3.41199 90.913 2.0835C92.4744 0.755007 94.4529 0.0175336 96.5029 0L98.5758 0C100.914 0 103.156 0.928839 104.81 2.58218C106.463 4.23553 107.392 6.47794 107.392 8.81613V37.762C107.392 38.0601 107.274 38.3459 107.063 38.5567C106.852 38.7674 106.566 38.8859 106.268 38.8859V38.8859Z" fill="#FF002E"/>
<path d="M88.8354 38.8861C88.5373 38.8861 88.2515 38.7677 88.0407 38.557C87.83 38.3462 87.7115 38.0603 87.7115 37.7623V8.8164C87.7366 8.40887 87.7366 8.00018 87.7115 7.59264C87.4139 6.07457 86.5939 4.70871 85.394 3.73235C84.1941 2.75598 82.69 2.23079 81.1432 2.24802H79.0702C77.4249 2.24996 75.8412 2.87403 74.6368 3.99501C73.4325 5.116 72.6966 6.65097 72.5768 8.29193C72.5584 8.46627 72.5584 8.64207 72.5768 8.8164V37.7623C72.5768 37.9099 72.5477 38.056 72.4912 38.1924C72.4348 38.3287 72.352 38.4526 72.2476 38.557C72.1433 38.6613 72.0194 38.7441 71.883 38.8006C71.7466 38.8571 71.6005 38.8861 71.4529 38.8861C71.3053 38.8861 71.1592 38.8571 71.0228 38.8006C70.8865 38.7441 70.7626 38.6613 70.6582 38.557C70.5539 38.4526 70.4711 38.3287 70.4146 38.1924C70.3581 38.056 70.329 37.9099 70.329 37.7623V8.8164C70.2949 8.52603 70.2949 8.23266 70.329 7.94229C70.5233 5.76298 71.5301 3.73646 73.1495 2.26515C74.7689 0.79384 76.8824 -0.0146334 79.0702 0.000279657H81.1432C83.2206 -0.022357 85.2392 0.68936 86.843 2.00989C88.4468 3.33042 89.5328 5.17491 89.9093 7.21801C90.0086 7.74503 90.0588 8.28012 90.0592 8.8164V37.7623C90.0598 37.9187 90.0278 38.0734 89.9652 38.2167C89.9025 38.36 89.8107 38.4887 89.6955 38.5945C89.5803 38.7003 89.4443 38.7808 89.2962 38.8311C89.1481 38.8813 88.9912 38.9 88.8354 38.8861V38.8861Z" fill="#FF002E"/>
<path d="M71.4034 38.8858C71.1054 38.8858 70.8195 38.7674 70.6087 38.5567C70.398 38.3459 70.2796 38.06 70.2796 37.762V8.8161C70.2928 8.67488 70.2928 8.53274 70.2796 8.39153C70.1646 6.80475 69.4923 5.30973 68.3815 4.17077C67.7765 3.55411 67.0532 3.06593 66.255 2.73548C65.4567 2.40504 64.6 2.23914 63.7362 2.24771C61.9941 2.24771 60.3234 2.93973 59.0916 4.17155C57.8598 5.40336 57.1678 7.07405 57.1678 8.8161V37.762C57.1678 38.06 57.0494 38.3459 56.8386 38.5567C56.6278 38.7674 56.342 38.8858 56.0439 38.8858C55.7458 38.8858 55.46 38.7674 55.2492 38.5567C55.0384 38.3459 54.92 38.06 54.92 37.762V8.8161C54.9112 7.07344 55.419 5.36725 56.3793 3.91304C57.3396 2.45883 58.7093 1.32184 60.3155 0.6457C61.9217 -0.0304387 63.6922 -0.215397 65.4034 0.114189C67.1146 0.443774 68.6898 1.27312 69.9299 2.49746C71.376 4.01293 72.2576 5.97907 72.4274 8.06685C72.4413 8.29141 72.4413 8.51662 72.4274 8.74117V37.762C72.4285 38.0435 72.3239 38.3152 72.1343 38.5233C71.9447 38.7314 71.6839 38.8608 71.4034 38.8858V38.8858Z" fill="#FF002E"/>
</g>
<defs>
<clipPath id="clip0_123_165">
<rect width="149" height="157.042" fill="white"/>
</clipPath>
</defs>
</svg>
