<svg width="117" height="177" viewBox="0 0 117 177" fill="none" xmlns="http://www.w3.org/2000/svg">
<g clip-path="url(#clip0_119_160)">
<path d="M58.5117 88.8812C52.5052 88.8812 46.6336 87.1001 41.6394 83.7631C36.6452 80.426 32.7527 75.683 30.4541 70.1337C28.1555 64.5845 27.5541 58.4782 28.7259 52.5871C29.8977 46.6961 32.7901 41.2848 37.0373 37.0376C41.2845 32.7903 46.6958 29.8979 52.5869 28.7261C58.478 27.5543 64.5842 28.1557 70.1335 30.4543C75.6827 32.7529 80.4258 36.6454 83.7628 41.6396C87.0998 46.6338 88.881 52.5054 88.881 58.5119C88.8747 66.5644 85.6731 74.2853 79.9791 79.9793C74.2851 85.6733 66.5642 88.8749 58.5117 88.8812ZM58.5117 30.5115C52.9737 30.5115 47.5601 32.1537 42.9555 35.2304C38.3508 38.3071 34.7619 42.6802 32.6427 47.7966C30.5234 52.913 29.9689 58.543 31.0493 63.9745C32.1297 69.4061 34.7964 74.3952 38.7124 78.3112C42.6283 82.2271 47.6175 84.8939 53.049 85.9743C58.4806 87.0547 64.1105 86.5002 69.2269 84.3809C74.3434 82.2616 78.7164 78.6727 81.7931 74.0681C84.8699 69.4634 86.5121 64.0499 86.5121 58.5119C86.5058 51.0877 83.5537 43.9693 78.304 38.7196C73.0543 33.4698 65.9359 30.5178 58.5117 30.5115V30.5115Z" fill="#FF002E"/>
<path d="M58.5119 117C54.0346 117 50.9077 112.262 47.8992 107.69C45.7672 104.445 43.5641 101.105 41.2426 100.157C38.921 99.2096 34.7518 99.9439 30.8194 100.726C25.5604 101.792 20.1357 102.881 17.1272 99.8728C14.1186 96.8643 15.232 91.4396 16.2743 86.1806C17.0561 82.2719 17.8615 78.2211 16.8429 75.7574C15.8243 73.2938 12.5552 71.2328 9.30978 69.1245C4.7378 66.0923 0 62.9654 0 58.5118C0 54.0583 4.7378 50.9077 9.33347 47.8992C12.5552 45.7672 15.8953 43.5641 16.8429 41.2426C17.7904 38.921 17.0561 34.7518 16.2743 30.8194C15.232 25.5604 14.1423 20.1357 17.1272 17.1272C20.112 14.1186 25.5841 15.232 30.8194 16.2743C34.7518 17.0561 38.7789 17.8615 41.2426 16.8429C43.7062 15.8243 45.7672 12.5552 47.8992 9.33347C50.9077 4.7378 54.0346 0 58.5119 0C62.9891 0 66.0923 4.7378 69.1245 9.33347C71.2565 12.5552 73.4359 15.8953 75.8048 16.8429C78.1737 17.7904 82.3193 17.0561 86.228 16.2743C91.487 15.232 96.9117 14.1423 99.9202 17.1272C102.929 20.112 101.839 25.5604 100.773 30.8194C99.9913 34.7518 99.1859 38.7789 100.205 41.2426C101.223 43.7062 104.492 45.7672 107.738 47.8992C112.31 50.9077 117.047 54.0346 117.047 58.5118C117.047 62.9891 112.31 66.0923 107.738 69.1245C104.492 71.2565 101.152 73.4596 100.205 75.7574C99.2569 78.0553 99.9913 82.2719 100.773 86.1806C101.839 91.4396 102.929 96.8643 99.9202 99.8728C96.9117 102.881 91.487 101.792 86.228 100.726C82.3193 99.9439 78.2685 99.1385 75.8048 100.157C73.3412 101.176 71.2802 104.445 69.1719 107.69C66.0923 112.262 62.9654 117 58.5119 117ZM38.2814 97.3144C39.6072 97.2811 40.9268 97.5064 42.1664 97.9777C45.1276 99.2096 47.4254 102.716 49.8654 106.387C52.5422 110.438 55.3138 114.631 58.5119 114.631C61.7099 114.631 64.4578 110.438 67.1346 106.387C69.5035 102.692 71.8725 99.2806 74.8573 97.9777C77.8421 96.6748 82.3904 97.5513 86.7018 98.4041C91.4396 99.3517 96.1774 100.299 98.2383 98.1909C100.299 96.0826 99.3991 91.2974 98.4515 86.6544C97.5987 82.3904 96.7222 77.9842 98.0251 74.8099C99.328 71.6356 102.763 69.5272 106.435 67.0873C110.486 64.4104 114.678 61.6388 114.678 58.4645C114.678 55.2901 110.486 52.4948 106.435 49.818C102.739 47.4491 99.328 45.0802 98.0251 42.1191C96.7222 39.1579 97.5987 34.5859 98.4515 30.2745C99.3991 25.5367 100.347 20.7989 98.2383 18.7143C96.13 16.6297 91.3448 17.5772 86.7018 18.5011C82.4377 19.3539 78.0316 20.2304 74.8573 18.9512C71.6829 17.672 69.5746 14.2134 67.1346 10.5416C64.4578 6.56185 61.5914 2.3689 58.5119 2.3689C55.4323 2.3689 52.5422 6.56185 49.8654 10.6364C47.4965 14.3082 45.1276 17.7431 42.1664 19.046C39.2053 20.3489 34.6333 19.4487 30.3219 18.5959C25.5841 17.672 20.8463 16.7007 18.7617 18.8091C16.6771 20.9174 17.6246 25.7263 18.5485 30.3693C19.4013 34.6333 20.2778 39.0395 18.9986 42.2138C17.7194 45.3881 14.2134 47.378 10.6364 49.8654C6.56185 52.5422 2.3689 55.3138 2.3689 58.5118C2.3689 61.7099 6.56185 64.4578 10.6364 67.1346C14.3082 69.5035 17.7431 71.8724 19.046 74.8573C20.3489 77.8421 19.4487 82.3904 18.5959 86.7018C17.672 91.4396 16.7008 96.1774 18.8091 98.2383C20.9174 100.299 25.7263 99.3991 30.3693 98.4515C32.9648 97.8231 35.614 97.4423 38.2814 97.3144Z" fill="#FF002E"/>
<path d="M46.7386 176.886C46.4917 176.886 46.2488 176.823 46.0332 176.703C45.8175 176.582 45.6363 176.409 45.5068 176.199L35.3916 157.484L15.0901 167.742C14.81 167.871 14.4977 167.912 14.1936 167.862C13.8895 167.811 13.6076 167.67 13.3845 167.457C13.1739 167.248 13.0318 166.98 12.9768 166.688C12.9218 166.396 12.9566 166.095 13.0765 165.823L35.7232 98.1671L38.0921 98.9252L15.9903 164.638L35.5337 154.736L36.6708 155.044L37.0498 155.613L46.5254 173.261L57.067 143.295L59.2701 147.369L48.0889 175.962C47.9987 176.21 47.839 176.426 47.629 176.586C47.419 176.746 47.1674 176.842 46.9044 176.862L46.7386 176.886Z" fill="#FF002E"/>
<path d="M70.8065 176.886C70.5334 176.871 70.2697 176.781 70.0441 176.627C69.8185 176.472 69.6397 176.259 69.5273 176.009L39.1343 99.0437L41.3374 98.1672L41.4795 98.5226L70.9249 173.261L80.4005 155.566C80.5591 155.252 80.8286 155.007 81.1568 154.881C81.485 154.754 81.8486 154.753 82.1772 154.879L101.294 164.52L75.2363 98.3093L77.4394 97.4565L77.9369 98.7358L104.469 165.823C104.577 166.112 104.592 166.427 104.511 166.725C104.431 167.022 104.258 167.287 104.018 167.481C103.796 167.666 103.523 167.778 103.235 167.804C102.947 167.829 102.659 167.766 102.408 167.623L82.1535 157.39L72.0857 176.033C71.9743 176.281 71.7952 176.493 71.5689 176.644C71.3426 176.794 71.0783 176.878 70.8065 176.886ZM82.6273 156.561V156.774C82.6362 156.703 82.6362 156.631 82.6273 156.561V156.561Z" fill="#FF002E"/>
</g>
<defs>
<clipPath id="clip0_119_160">
<rect width="117" height="176.886" fill="white"/>
</clipPath>
</defs>
</svg>
