<svg width="122" height="165" viewBox="0 0 122 165" fill="none" xmlns="http://www.w3.org/2000/svg">
<path d="M114.96 163.14H7C3.69 163.14 1 160.45 1 157.14V7C1 3.69 3.69 1 7 1H114.96C118.27 1 120.96 3.69 120.96 7V157.14C120.96 160.45 118.28 163.14 114.96 163.14Z" stroke="#FF002E" stroke-width="2" stroke-miterlimit="10"/>
<path d="M26.3 96.76H95.66" stroke="#FF002E" stroke-width="2" stroke-miterlimit="10"/>
<path d="M26.3 117.75H95.66" stroke="#FF002E" stroke-width="2" stroke-miterlimit="10"/>
<path d="M26.3 138.74H95.66" stroke="#FF002E" stroke-width="2" stroke-miterlimit="10"/>
<path d="M60.9801 35.38C60.9801 35.38 48.1401 20.8 37.3401 32.32C26.5401 43.84 47.1901 58.24 60.9801 71.56" stroke="#FF002E" stroke-width="2" stroke-miterlimit="10"/>
<path d="M60 35.4915C60 35.4915 72.84 20.9115 83.64 32.4315C94.44 43.9515 73.79 58.3515 60 71.6715" stroke="#FF002E" stroke-width="2" stroke-miterlimit="10"/>
</svg>
